{"title":"Yes.Man.2008.DVDRIP.XviD-ZEKTORM","uid":4800013,"size":746097779,"categoryP":"video","categoryS":"movies","magnet":"?xt=urn:btih:37380751a28af96c66152d120ecf1f61ad16b368&amp;dn=Yes.Man.2008.DVDRIP.XviD-ZEKTORM&amp;tr=udp%3A%2F%2Ftracker.openbittorrent.com%3A80&amp;tr=udp%3A%2F%2Fopen.demonii.com%3A1337&amp;tr=udp%3A%2F%2Ftracker.coppersurfer.tk%3A6969&amp;tr=udp%3A%2F%2Fexodus.desync.com%3A6969","seeders":0,"leechers":1,"uploader":"blowley","files":4,"time":1238009746,"description":"Title                            : Yes Man\n\nYear                             : 2008\nGenre                            : Comedy | Romance\niMDB Rate                        : User Rating: 7.2/10   22,274 votes \niMDB URL                         : http://www.imdb.com/title/tt1068680/\n\nComplete name                    : Yes.Man.2008.DVDRIP.XviD-ZEKTORM.avi\nFormat                           : AVI\nFile size                        : 701 MiB\nDuration                         : 1h 44mn\nOverall bit rate                 : 939 Kbps\nSubtitles                        : English, Spanish, French (Format: VobSub)\nSource                           : DVD NTSC\n\nVideo\nFormat                           : MPEG-4 Visual\nFormat profile                   : Streaming Video@L1\nCodec ID                         : DX50\nCodec ID/Hint                    : DivX 5\nDuration                         : 1h 44mn\nBit rate                         : 804 Kbps\nWidth                            : 720 pixels\nHeight                           : 304 pixels\nDisplay aspect ratio             : 2.35\nFrame rate                       : 23.976 fps\nResolution                       : 24 bits\nColorimetry                      : 4:2:0\nScan type                        : Progressive\nBits/(Pixel*Frame)               : 0.153\nStream size                      : 600 MiB (86%)\nWriting library                  : XviD\n\nAudio\nFormat                           : MPEG Audio\nFormat version                   : Version 1\nFormat profile                   : Layer 3\nCodec ID                         : 55\nCodec ID/Hint                    : MP3\nDuration                         : 1h 44mn\nBit rate mode                    : Constant\nBit rate                         : 128 Kbps\nMinimum bit rate                 : 128 Kbps\nChannel(s)                       : 2 channels\nSampling rate                    : 48.0 KHz\nResolution                       : 16 bits\nStream size                      : 95.5 MiB (14%)\nWriting library                  : LAME3.98r\nEncoding settings                : CBR\n","torrent":{"xt":"urn:btih:37380751a28af96c66152d120ecf1f61ad16b368","amp;dn":"Yes.Man.2008.DVDRIP.XviD-ZEKTORM","amp;tr":["udp%3A%2F%2Ftracker.openbittorrent.com%3A80","udp%3A%2F%2Fopen.demonii.com%3A1337","udp%3A%2F%2Ftracker.coppersurfer.tk%3A6969","udp%3A%2F%2Fexodus.desync.com%3A6969"],"infoHash":"37380751a28af96c66152d120ecf1f61ad16b368","infoHashBuffer":{"type":"Buffer","data":[55,56,7,81,162,138,249,108,102,21,45,18,14,207,31,97,173,22,179,104]},"announce":[],"urlList":[]}}